<svg width="24.15" height="24.15" viewBox="0 0 6.39 6.39" xmlns="http://www.w3.org/2000/svg">
    <defs>
        <clipPath clipPathUnits="userSpaceOnUse" id="miss">
            <path d="M31.5 517.64H297v64.82H31.5z"/>
        </clipPath>
    </defs>
    <g clip-path="url(#miss)" transform="matrix(.35278 0 0 -.35278 -97.71 195.53)">
        <path d="M294.16 545.2a8.12 8.12 0 10-16.24 0 8.12 8.12 0 0016.24 0" fill="#fff"/>
        <path d="M294.16 545.2a8.12 8.12 0 10-16.24 0 8.12 8.12 0 0016.24 0z" fill="none" stroke="#393536"
              stroke-width="1.87" stroke-miterlimit="10"/>
        <path d="M290.59 542.19l-1.44-1.5-3.11 2.82-3.12-2.82-1.43 1.5 3 2.73-3 2.72 1.33 1.6 3.22-2.92 3.21 2.93 1.34-1.61-3-2.72z"
              fill="#393536"/>
    </g>
</svg>
