<?xml version="1.0" encoding="UTF-8" standalone="no"?>
<!-- Created with Inkscape (http://www.inkscape.org/) -->

<svg
   version="1.1"
   id="svg25"
   xml:space="preserve"
   width="816"
   height="1056"
   viewBox="0 0 816 1056"
   sodipodi:docname="ticker.svg"
   inkscape:version="1.1 (c4e8f9e, 2021-05-24)"
   xmlns:inkscape="http://www.inkscape.org/namespaces/inkscape"
   xmlns:sodipodi="http://sodipodi.sourceforge.net/DTD/sodipodi-0.dtd"
   xmlns="http://www.w3.org/2000/svg"
   xmlns:svg="http://www.w3.org/2000/svg"><defs
     id="defs29"><clipPath
       clipPathUnits="userSpaceOnUse"
       id="clipPath97"><path
         d="M 31.5,517.639 H 297 v 64.824 H 31.5 Z"
         id="path95" /></clipPath><clipPath
       clipPathUnits="userSpaceOnUse"
       id="clipPath125"><path
         d="M 31.5,517.639 H 297 v 64.824 H 31.5 Z"
         id="path123" /></clipPath><clipPath
       clipPathUnits="userSpaceOnUse"
       id="clipPath145"><path
         d="M 31.5,517.639 H 297 v 64.824 H 31.5 Z"
         id="path143" /></clipPath><clipPath
       clipPathUnits="userSpaceOnUse"
       id="clipPath181"><path
         d="M 31.5,517.639 H 297 v 64.824 H 31.5 Z"
         id="path179" /></clipPath><clipPath
       clipPathUnits="userSpaceOnUse"
       id="clipPath217"><path
         d="M 31.5,517.639 H 297 v 64.824 H 31.5 Z"
         id="path215" /></clipPath><clipPath
       clipPathUnits="userSpaceOnUse"
       id="clipPath255"><path
         d="M 31.5,517.639 H 297 v 64.824 H 31.5 Z"
         id="path253" /></clipPath><clipPath
       clipPathUnits="userSpaceOnUse"
       id="clipPath355"><path
         d="m 31.5,420.53 h 26.995 v 26.31 H 31.5 Z"
         id="path353" /></clipPath><clipPath
       clipPathUnits="userSpaceOnUse"
       id="clipPath383"><path
         d="m 61.494,420.53 h 26.995 v 26.31 H 61.494 Z"
         id="path381" /></clipPath><clipPath
       clipPathUnits="userSpaceOnUse"
       id="clipPath411"><path
         d="m 91.34,420.53 h 26.995 v 26.31 H 91.34 Z"
         id="path409" /></clipPath><clipPath
       clipPathUnits="userSpaceOnUse"
       id="clipPath439"><path
         d="m 223.5,384.308 h 26.473 V 410.38 H 223.5 Z"
         id="path437" /></clipPath><clipPath
       clipPathUnits="userSpaceOnUse"
       id="clipPath455"><path
         d="m 221.923,420.53 h 26.995 v 26.31 h -26.995 z"
         id="path453" /></clipPath><clipPath
       clipPathUnits="userSpaceOnUse"
       id="clipPath491"><path
         d="m 192.02,420.53 h 26.994 v 26.31 H 192.02 Z"
         id="path489" /></clipPath><clipPath
       clipPathUnits="userSpaceOnUse"
       id="clipPath519"><path
         d="m 31.5,384.07 h 26.995 v 26.31 H 31.5 Z"
         id="path517" /></clipPath><clipPath
       clipPathUnits="userSpaceOnUse"
       id="clipPath547"><path
         d="M 131.558,384.308 H 158.03 V 410.38 H 131.558 Z"
         id="path545" /></clipPath><clipPath
       clipPathUnits="userSpaceOnUse"
       id="clipPath631"><path
         d="M 31.5,141.059 H 297 V 247.297 H 31.5 Z"
         id="path629" /></clipPath><clipPath
       clipPathUnits="userSpaceOnUse"
       id="clipPath671"><path
         d="M 31.5,141.059 H 297 V 247.297 H 31.5 Z"
         id="path669" /></clipPath><clipPath
       clipPathUnits="userSpaceOnUse"
       id="clipPath799"><path
         d="M 31.5,141.059 H 297 V 247.297 H 31.5 Z"
         id="path797" /></clipPath><clipPath
       clipPathUnits="userSpaceOnUse"
       id="clipPath835"><path
         d="M 31.5,141.059 H 297 V 247.297 H 31.5 Z"
         id="path833" /></clipPath><clipPath
       clipPathUnits="userSpaceOnUse"
       id="clipPath871"><path
         d="M 31.5,141.059 H 297 V 247.297 H 31.5 Z"
         id="path869" /></clipPath><clipPath
       clipPathUnits="userSpaceOnUse"
       id="clipPath1543"><path
         d="M 31.5,726.703 H 71.1 V 766.08 H 31.5 Z"
         id="path1541" /></clipPath><clipPath
       clipPathUnits="userSpaceOnUse"
       id="clipPath1555"><path
         d="M 178.2,54.324 H 297 V 104.84 H 178.2 Z"
         id="path1553" /></clipPath><clipPath
       clipPathUnits="userSpaceOnUse"
       id="clipPath1591"><path
         d="M 178.2,54.324 H 297 V 104.84 H 178.2 Z"
         id="path1589" /></clipPath></defs><sodipodi:namedview
     id="namedview27"
     pagecolor="#505050"
     bordercolor="#ffffff"
     borderopacity="1"
     inkscape:pageshadow="0"
     inkscape:pageopacity="0"
     inkscape:pagecheckerboard="1"
     showgrid="false"
     inkscape:zoom="3.4646764"
     inkscape:cx="37.088601"
     inkscape:cy="437.41459"
     inkscape:window-width="1312"
     inkscape:window-height="847"
     inkscape:window-x="0"
     inkscape:window-y="25"
     inkscape:window-maximized="0"
     inkscape:current-layer="g31" /><g
     id="g31"
     inkscape:groupmode="layer"
     inkscape:label="Ironsworn-Rules-Reference"
     transform="matrix(1.3333333,0,0,-1.3333333,0,1056)"><g
       id="g349"><g
         id="g351"
         clip-path="url(#clipPath355)"><g
           id="g357"
           transform="translate(56.0107,422.2686)"><path
             d="M 0,0 H -22.412 V 22.412 H 0 Z"
             style="fill:none;stroke:#444141;stroke-width:1.656;stroke-linecap:butt;stroke-linejoin:miter;stroke-miterlimit:10;stroke-dasharray:none;stroke-opacity:1"
             id="path359" /></g><g
           id="g361"
           transform="translate(52.5325,425.1791)"><path
             d="m 0,0 c -0.131,0 -0.261,0.05 -0.399,0.153 -5.861,4.374 -11.429,9.237 -16.55,14.454 -0.381,0.387 -0.291,1.058 -0.1,1.515 0.229,0.547 0.594,0.841 0.821,0.841 0.098,0 0.206,-0.058 0.321,-0.175 C -10.741,11.525 -5.123,6.618 0.791,2.205 1.251,1.861 1.077,1.204 1.012,1.01 0.825,0.444 0.38,0 0,0"
             style="fill:#2e2a2b;fill-opacity:1;fill-rule:nonzero;stroke:none"
             id="path363" /></g><g
           id="g365"
           transform="translate(43.872,421.2276)"><path
             d="m 0,0 c -0.209,0 -0.398,0.076 -0.532,0.214 -0.179,0.187 -0.268,0.484 -0.256,0.863 0.225,6.909 0.122,14.038 -0.307,21.186 -0.03,0.509 0.243,0.879 0.408,1.055 0.259,0.275 0.607,0.453 0.885,0.453 0.115,0 0.42,0 0.463,-0.704 C 1.091,15.897 1.186,8.495 0.944,1.068 0.92,0.334 0.438,0 0,0"
             style="fill:#2e2a2b;fill-opacity:1;fill-rule:nonzero;stroke:none"
             id="path367" /></g><g
           id="g369"
           transform="translate(38.4259,423.2811)"><path
             d="M 0,0 C -0.282,0 -0.555,0.186 -0.696,0.473 -0.868,0.825 -0.802,1.241 -0.512,1.615 0.71,3.192 2,4.741 3.365,6.381 c 3.633,4.361 7.388,8.871 9.736,13.876 0.33,0.704 0.84,0.78 1.044,0.78 0.268,0 0.501,-0.115 0.624,-0.308 0.144,-0.226 0.126,-0.559 -0.052,-0.938 C 12.245,14.522 8.341,9.764 4.567,5.162 3.316,3.636 2.021,2.059 0.816,0.503 0.56,0.174 0.279,0 0,0"
             style="fill:#2e2a2b;fill-opacity:1;fill-rule:nonzero;stroke:none"
             id="path371" /></g><g
           id="g373"
           transform="translate(33.7949,429.4619)"><path
             d="m 0,0 c -0.117,0 -0.36,0 -0.393,0.523 -0.048,0.756 0.454,1.741 1.149,1.83 7.342,0.936 14.79,1.847 22.136,2.709 0.037,0.003 0.072,0.006 0.106,0.006 0.123,0 0.379,0 0.411,-0.543 C 23.452,3.773 22.95,2.799 22.26,2.719 14.895,1.854 7.442,0.942 0.113,0.007 0.074,0.002 0.036,0 0,0"
             style="fill:#2e2a2b;fill-opacity:1;fill-rule:nonzero;stroke:none"
             id="path375" /></g></g></g></g></svg>
