<?xml version="1.0" encoding="UTF-8" standalone="no"?>
<!-- Created with Inkscape (http://www.inkscape.org/) -->

<svg
   width="26.811575mm"
   height="28.433535mm"
   viewBox="0 0 26.811575 28.433535"
   version="1.1"
   id="svg720"
   inkscape:version="1.1 (c68e22c387, 2021-05-23)"
   sodipodi:docname="d10.svg"
   xmlns:inkscape="http://www.inkscape.org/namespaces/inkscape"
   xmlns:sodipodi="http://sodipodi.sourceforge.net/DTD/sodipodi-0.dtd"
   xmlns="http://www.w3.org/2000/svg"
   xmlns:svg="http://www.w3.org/2000/svg">
  <sodipodi:namedview
     id="namedview722"
     pagecolor="#505050"
     bordercolor="#ffffff"
     borderopacity="1"
     inkscape:pageshadow="0"
     inkscape:pageopacity="0"
     inkscape:pagecheckerboard="1"
     inkscape:document-units="mm"
     showgrid="false"
     fit-margin-top="0"
     fit-margin-left="0"
     fit-margin-right="0"
     fit-margin-bottom="0"
     inkscape:zoom="4.3994184"
     inkscape:cx="42.391967"
     inkscape:cy="18.297873"
     inkscape:window-width="1718"
     inkscape:window-height="1351"
     inkscape:window-x="-8"
     inkscape:window-y="0"
     inkscape:window-maximized="0"
     inkscape:current-layer="layer1" />
  <defs
     id="defs717">
    <clipPath
       clipPathUnits="userSpaceOnUse"
       id="clipPath99">
      <path
         d="m 50.4,400.072 h 306 v 104.475 h -306 z"
         id="path97" />
    </clipPath>
  </defs>
  <g
     inkscape:label="Layer 1"
     inkscape:groupmode="layer"
     id="layer1"
     transform="translate(-0.54267032,-0.70978504)">
    <g
       id="g93"
       transform="matrix(0.35277777,0,0,-0.35277777,-20.021917,178.70268)">
      <g
         id="g95"
         clip-path="url(#clipPath99)">
        <g
           id="g101"
           transform="translate(133.2621,466.5708)">
          <path
             d="m 0,0 -34.135,36.742 c -0.73,0.786 -1.755,1.234 -2.829,1.234 -1.073,0 -2.098,-0.448 -2.828,-1.234 L -73.936,0 c -1.385,-1.491 -1.376,-3.801 0.021,-5.281 l 34.14,-36.133 c 0.729,-0.772 1.745,-1.209 2.806,-1.209 1.063,0 2.079,0.437 2.808,1.209 L -0.023,-5.281 C 1.376,-3.801 1.385,-1.491 0,0"
             style="fill:#414042;fill-opacity:1;fill-rule:nonzero;stroke:none"
             id="path103" />
        </g>
        <g
           id="g105"
           transform="translate(99.1813,463.3304)">
          <path
             d="m 0,0 13.908,6.002 c 0.634,0.273 1.082,0.748 1.255,1.336 0.175,0.587 0.062,1.227 -0.32,1.805 L -1.61,34.028 c -0.362,0.548 -0.815,0.849 -1.274,0.849 -0.457,0 -0.909,-0.301 -1.273,-0.849 L -20.613,9.143 c -0.382,-0.578 -0.495,-1.219 -0.32,-1.806 0.174,-0.587 0.621,-1.062 1.255,-1.335 L -5.771,0 c 0.743,-0.321 1.796,-0.505 2.886,-0.505 1.09,0 2.141,0.184 2.885,0.505"
             style="fill:#e6e7e8;fill-opacity:1;fill-rule:nonzero;stroke:none"
             id="path107" />
        </g>
        <g
           id="g109"
           transform="translate(128.8125,462.6823)">
          <path
             d="m 0,0 c -0.1,0.489 -0.49,0.905 -1.1,1.173 l -7.479,3.271 c -0.747,0.327 -1.805,0.514 -2.902,0.514 -1.08,0 -2.121,-0.181 -2.858,-0.499 l -13.906,-6.002 c -1.478,-0.638 -2.725,-2.536 -2.726,-4.145 l -0.002,-26.481 c 0,-0.708 0.173,-0.968 0.22,-0.998 l -0.003,0.004 c 0.108,0 0.408,0.121 0.836,0.575 L -0.555,-1.509 C -0.098,-1.025 0.1,-0.489 0,0"
             style="fill:#77787b;fill-opacity:1;fill-rule:nonzero;stroke:none"
             id="path111" />
        </g>
        <g
           id="g113"
           transform="translate(120.8531,469.3151)">
          <path
             d="M 0,0 7.257,-3.175 -17.968,23.975 -4.766,4.01 C -3.796,2.542 -1.612,0.705 0,0"
             style="fill:#939598;fill-opacity:1;fill-rule:nonzero;stroke:none"
             id="path115" />
        </g>
        <g
           id="g117"
           transform="translate(92.0251,461.1388)">
          <path
             d="m 0,0 -13.906,6.002 c -0.737,0.318 -1.778,0.5 -2.858,0.5 -1.097,0 -2.156,-0.187 -2.902,-0.515 l -7.483,-3.271 c -0.61,-0.267 -1.001,-0.684 -1.101,-1.173 -0.099,-0.489 0.099,-1.024 0.555,-1.509 L 1.67,-31.044 c 0.429,-0.454 0.728,-0.576 0.837,-0.576 h 0.007 c 0.037,0.027 0.21,0.286 0.21,0.994 L 2.725,-4.144 C 2.725,-2.535 1.477,-0.638 0,0"
             style="fill:#77787b;fill-opacity:1;fill-rule:nonzero;stroke:none"
             id="path119" />
        </g>
        <g
           id="g121"
           transform="translate(71.7392,469.3151)">
          <path
             d="M 0,0 C 1.613,0.706 3.797,2.542 4.768,4.01 L 17.972,23.977 -7.261,-3.176 Z"
             style="fill:#939598;fill-opacity:1;fill-rule:nonzero;stroke:none"
             id="path123" />
        </g>
      </g>
    </g>
  </g>
</svg>
