<?xml version="1.0" encoding="UTF-8" standalone="no"?>
<!-- Created with Inkscape (http://www.inkscape.org/) -->

<svg
   width="24.41081mm"
   height="20.150314mm"
   viewBox="0 0 24.41081 20.150314"
   version="1.1"
   id="svg878"
   inkscape:version="1.1 (c68e22c387, 2021-05-23)"
   sodipodi:docname="d6.svg"
   xmlns:inkscape="http://www.inkscape.org/namespaces/inkscape"
   xmlns:sodipodi="http://sodipodi.sourceforge.net/DTD/sodipodi-0.dtd"
   xmlns="http://www.w3.org/2000/svg"
   xmlns:svg="http://www.w3.org/2000/svg">
  <sodipodi:namedview
     id="namedview880"
     pagecolor="#505050"
     bordercolor="#ffffff"
     borderopacity="1"
     inkscape:pageshadow="0"
     inkscape:pageopacity="0"
     inkscape:pagecheckerboard="1"
     inkscape:document-units="mm"
     showgrid="false"
     fit-margin-top="0"
     fit-margin-left="0"
     fit-margin-right="0"
     fit-margin-bottom="0"
     inkscape:zoom="0.77771465"
     inkscape:cx="-179.3717"
     inkscape:cy="300.23866"
     inkscape:window-width="3440"
     inkscape:window-height="1361"
     inkscape:window-x="-9"
     inkscape:window-y="-9"
     inkscape:window-maximized="1"
     inkscape:current-layer="layer1" />
  <defs
     id="defs875">
    <clipPath
       clipPathUnits="userSpaceOnUse"
       id="clipPath71">
      <path
         d="m 50.4,400.072 h 306 v 104.475 h -306 z"
         id="path69" />
    </clipPath>
  </defs>
  <g
     inkscape:label="Layer 1"
     inkscape:groupmode="layer"
     id="layer1"
     transform="translate(-44.60903,-69.192892)">
    <g
       id="g65"
       transform="matrix(0.35277777,0,0,-0.35277777,-54.967082,238.90253)">
      <g
         id="g67"
         clip-path="url(#clipPath71)">
        <g
           id="g73"
           transform="translate(285.84,423.9477)">
          <path
             d="m 0,0 h 41.019 c 0.502,0 0.999,0.106 1.456,0.31 l 21.027,9.385 c 1.287,0.575 2.117,1.854 2.117,3.266 v 40.581 c 0,1.976 -1.601,3.577 -3.575,3.577 H 23.21 c -0.438,0 -0.876,-0.081 -1.285,-0.24 L -1.286,47.932 C -2.667,47.401 -3.577,46.075 -3.577,44.595 V 3.577 C -3.577,1.602 -1.976,0 0,0"
             style="fill:#414042;fill-opacity:1;fill-rule:nonzero;stroke:none"
             id="path75" />
        </g>
        <g
           id="g77"
           transform="translate(323.6398,467.8276)">
          <path
             d="m 0,0 h -34.581 c -1.381,0 -2.503,-1.123 -2.503,-2.504 v -34.58 c 0,-1.38 1.122,-2.504 2.503,-2.504 H 0 c 1.38,0 2.502,1.124 2.502,2.504 v 34.58 C 2.502,-1.123 1.38,0 0,0"
             style="fill:#e6e7e8;fill-opacity:1;fill-rule:nonzero;stroke:none"
             id="path79" />
        </g>
        <g
           id="g81"
           transform="translate(347.8834,440.4854)">
          <path
             d="m 0,0 v 34.144 c 0,0.926 -0.439,1.479 -1.174,1.479 -0.245,0 -0.512,-0.06 -0.791,-0.179 l -15.102,-6.427 c -1.37,-0.582 -2.527,-2.332 -2.527,-3.82 V -9.384 c 0,-0.906 0.419,-1.448 1.122,-1.448 0.25,0 0.522,0.066 0.81,0.194 l 15.146,6.761 C -1.152,-3.269 0,-1.493 0,0"
             style="fill:#77787b;fill-opacity:1;fill-rule:nonzero;stroke:none"
             id="path83" />
        </g>
        <g
           id="g85"
           transform="translate(323.6398,469.9742)">
          <path
             d="m 0,0 c 1.666,0 4.368,0.551 5.9,1.204 l 14.836,6.312 h -32.107 c -1.673,0 -4.404,-0.508 -5.965,-1.109 L -33.955,0 Z"
             style="fill:#bcbec0;fill-opacity:1;fill-rule:nonzero;stroke:none"
             id="path87" />
        </g>
      </g>
    </g>
  </g>
</svg>
